<svg width="1093" height="229" viewBox="0 0 1093 229" fill="none" xmlns="http://www.w3.org/2000/svg">
<path opacity="0.05" d="M41.192 57.52V107.92H108.872V139.888H41.192V193.168H117.512V226H0.872002V24.688H117.512V57.52H41.192ZM352.297 64.144C371.881 64.144 387.625 70.192 399.529 82.288C411.625 94.192 417.673 110.896 417.673 132.4V226H377.353V137.872C377.353 125.392 374.185 115.888 367.849 109.36C361.513 102.64 352.873 99.28 341.929 99.28C330.985 99.28 322.249 102.64 315.721 109.36C309.385 115.888 306.217 125.392 306.217 137.872V226H265.897V137.872C265.897 125.392 262.729 115.888 256.393 109.36C250.057 102.64 241.417 99.28 230.473 99.28C219.337 99.28 210.505 102.64 203.977 109.36C197.641 115.888 194.473 125.392 194.473 137.872V226H154.153V66.448H194.473V85.744C199.657 79.024 206.281 73.744 214.345 69.904C222.601 66.064 231.625 64.144 241.417 64.144C253.897 64.144 265.033 66.832 274.825 72.208C284.617 77.392 292.201 84.88 297.577 94.672C302.761 85.456 310.249 78.064 320.041 72.496C330.025 66.928 340.777 64.144 352.297 64.144ZM496.255 89.776C501.439 82.096 508.543 75.856 517.567 71.056C526.783 66.256 537.247 63.856 548.959 63.856C562.591 63.856 574.879 67.216 585.823 73.936C596.959 80.656 605.695 90.256 612.031 102.736C618.559 115.024 621.823 129.328 621.823 145.648C621.823 161.968 618.559 176.464 612.031 189.136C605.695 201.616 596.959 211.312 585.823 218.224C574.879 225.136 562.591 228.592 548.959 228.592C537.055 228.592 526.591 226.288 517.567 221.68C508.735 216.88 501.631 210.736 496.255 203.248V226H455.935V12.88H496.255V89.776ZM580.639 145.648C580.639 136.048 578.623 127.792 574.591 120.88C570.751 113.776 565.567 108.4 559.039 104.752C552.703 101.104 545.791 99.28 538.303 99.28C531.007 99.28 524.095 101.2 517.567 105.04C511.231 108.688 506.047 114.064 502.015 121.168C498.175 128.272 496.255 136.624 496.255 146.224C496.255 155.824 498.175 164.176 502.015 171.28C506.047 178.384 511.231 183.856 517.567 187.696C524.095 191.344 531.007 193.168 538.303 193.168C545.791 193.168 552.703 191.248 559.039 187.408C565.567 183.568 570.751 178.096 574.591 170.992C578.623 163.888 580.639 155.44 580.639 145.648ZM799.442 142.768C799.442 148.528 799.058 153.712 798.29 158.32H681.65C682.61 169.84 686.642 178.864 693.746 185.392C700.85 191.92 709.586 195.184 719.954 195.184C734.93 195.184 745.586 188.752 751.922 175.888H795.41C790.802 191.248 781.97 203.92 768.914 213.904C755.858 223.696 739.826 228.592 720.818 228.592C705.458 228.592 691.634 225.232 679.346 218.512C667.25 211.6 657.746 201.904 650.834 189.424C644.114 176.944 640.754 162.544 640.754 146.224C640.754 129.712 644.114 115.216 650.834 102.736C657.554 90.256 666.962 80.656 679.058 73.936C691.154 67.216 705.074 63.856 720.818 63.856C735.986 63.856 749.522 67.12 761.426 73.648C773.522 80.176 782.834 89.488 789.362 101.584C796.082 113.488 799.442 127.216 799.442 142.768ZM757.682 131.248C757.49 120.88 753.746 112.624 746.45 106.48C739.154 100.144 730.226 96.976 719.666 96.976C709.682 96.976 701.234 100.048 694.322 106.192C687.602 112.144 683.474 120.496 681.938 131.248H757.682ZM869.192 12.88V226H828.872V12.88H869.192ZM949.348 12.88V226H909.028V12.88H949.348ZM1009.63 47.44C1002.53 47.44 996.577 45.232 991.777 40.816C987.169 36.208 984.865 30.544 984.865 23.824C984.865 17.104 987.169 11.536 991.777 7.11999C996.577 2.51199 1002.53 0.207989 1009.63 0.207989C1016.74 0.207989 1022.59 2.51199 1027.2 7.11999C1032 11.536 1034.4 17.104 1034.4 23.824C1034.4 30.544 1032 36.208 1027.2 40.816C1022.59 45.232 1016.74 47.44 1009.63 47.44ZM1029.5 66.448V226H989.185V66.448H1029.5ZM1217.66 142.768C1217.66 148.528 1217.28 153.712 1216.51 158.32H1099.87C1100.83 169.84 1104.86 178.864 1111.96 185.392C1119.07 191.92 1127.8 195.184 1138.17 195.184C1153.15 195.184 1163.8 188.752 1170.14 175.888H1213.63C1209.02 191.248 1200.19 203.92 1187.13 213.904C1174.08 223.696 1158.04 228.592 1139.04 228.592C1123.68 228.592 1109.85 225.232 1097.56 218.512C1085.47 211.6 1075.96 201.904 1069.05 189.424C1062.33 176.944 1058.97 162.544 1058.97 146.224C1058.97 129.712 1062.33 115.216 1069.05 102.736C1075.77 90.256 1085.18 80.656 1097.28 73.936C1109.37 67.216 1123.29 63.856 1139.04 63.856C1154.2 63.856 1167.74 67.12 1179.64 73.648C1191.74 80.176 1201.05 89.488 1207.58 101.584C1214.3 113.488 1217.66 127.216 1217.66 142.768ZM1175.9 131.248C1175.71 120.88 1171.96 112.624 1164.67 106.48C1157.37 100.144 1148.44 96.976 1137.88 96.976C1127.9 96.976 1119.45 100.048 1112.54 106.192C1105.82 112.144 1101.69 120.496 1100.16 131.248H1175.9Z" fill="#424241"/>
</svg>
